<?xml version="1.0" encoding="UTF-8"?>
<svg width="153px" height="37px" viewBox="0 0 153 37" version="1.1" xmlns="http://www.w3.org/2000/svg" xmlns:xlink="http://www.w3.org/1999/xlink">
    <title>Userforge</title>
    <g id="Page-1" stroke="none" stroke-width="1" fill="none" fill-rule="evenodd">
        <g id="Artboard" transform="translate(-119.000000, -221.000000)" fill-rule="nonzero">
            <g id="Userforge" transform="translate(119.000000, 221.000000)">
                <g fill="#2989CB" id="userforge" transform="translate(-0.000000, 0.000000)">
                    <path d="M26.0170056,26.5826896 C27.2927639,25.7187944 28.3159551,24.6136789 29.0866,23.2673229 C30.0500622,21.5841052 30.5317861,19.6518002 30.5317861,17.4703501 C30.5317861,15.2619684 30.0500622,13.3229307 29.0866,11.6531787 C28.1231378,9.98342672 26.7649441,8.69073492 25.0119781,7.77506447 C23.2590122,6.85939402 21.2451388,6.40156568 18.9702974,6.40156568 C16.6686933,6.40156568 14.6414387,6.85939402 12.8884727,7.77506447 C11.1355068,8.69073492 9.77731307,9.98342672 8.81385086,11.6531787 C7.85038866,13.3229307 7.36866479,15.2619684 7.36866479,17.4703501 C7.36866479,19.6518002 7.85038866,21.5841052 8.81385086,23.2673229 C9.60547329,24.6503277 10.6635781,25.7787798 11.988188,26.652701 L15.9797653,22.677835 C15.6478579,22.4539039 15.3400203,22.1858342 15.0562518,21.8736256 C14.0526454,20.7694348 13.5508497,19.328622 13.5508497,17.5511441 C13.5508497,15.7736662 14.0526454,14.3328534 15.0562518,13.2286626 C16.0598583,12.1244718 17.3645271,11.5723847 18.9702974,11.5723847 C20.5493049,11.5723847 21.8405925,12.1244718 22.844199,13.2286626 C23.8478055,14.3328534 24.3496012,15.7736662 24.3496012,17.5511441 C24.3496012,19.328622 23.8478055,20.7694348 22.844199,21.8736256 C22.5896209,22.1537183 22.3165318,22.3982859 22.0249313,22.6073285 L26.0170056,26.5826896 Z M37.9009394,17.8341289 C37.9095346,18.0961856 37.9138322,18.3606452 37.9138322,18.6275076 C37.9138322,22.1981462 37.1253375,25.3609793 35.5483245,28.1161017 C33.9713114,30.8712241 31.7481945,33.009167 28.8789068,34.5299945 C26.0096192,36.0508221 22.7132734,36.8112245 18.9897704,36.8112245 C15.2224614,36.8112245 11.904213,36.0508221 9.03492536,34.5299945 C6.16563774,33.009167 3.94252076,30.8712241 2.36550773,28.1161017 C0.788494692,25.3609793 0,22.1981462 0,18.6275076 C0,18.3602365 0.004310754,18.0953757 0.0129322716,17.832925 C0.00458558326,17.8115709 0,17.7885223 0,17.7647463 L0,0 L37.7277191,0 C37.8305065,0 37.9138322,0.0881345418 37.9138322,0.189486309 L37.9138322,17.7647463 C37.9138322,17.7892368 37.9092596,17.8126421 37.9009394,17.8341289 Z" id="Combined-Shape"></path>
                </g>
                <path d="M61.808,26.36 C62.912,26.36 63.896,26.132 64.76,25.676 C65.624,25.22 66.304,24.484 66.8,23.468 C67.296,22.452 67.544,21.104 67.544,19.424 L67.544,19.424 L67.544,11.192 L69.632,10.928 L69.632,9.944 L63.872,9.944 L63.872,10.928 L66.32,11.24 L66.32,18.848 C66.32,20.976 65.976,22.476 65.288,23.348 C64.6,24.22 63.576,24.656 62.216,24.656 C61.4,24.656 60.696,24.492 60.104,24.164 C59.512,23.836 59.052,23.276 58.724,22.484 C58.396,21.692 58.232,20.616 58.232,19.256 L58.232,19.256 L58.232,17.36 C58.232,16.32 58.236,15.288 58.244,14.264 C58.252,13.24 58.264,12.224 58.28,11.216 L58.28,11.216 L60.728,10.928 L60.728,9.944 L53.936,9.944 L53.936,10.928 L55.928,11.168 C55.96,12.192 55.976,13.22 55.976,14.252 L55.976,14.252 L55.976,19.952 C55.976,21.44 56.22,22.656 56.708,23.6 C57.196,24.544 57.88,25.24 58.76,25.688 C59.64,26.136 60.656,26.36 61.808,26.36 Z M73.688,26.312 C74.728,26.312 75.592,26.152 76.28,25.832 C76.968,25.512 77.488,25.092 77.84,24.572 C78.192,24.052 78.368,23.488 78.368,22.88 C78.368,22.128 78.116,21.464 77.612,20.888 C77.108,20.312 76.256,19.8 75.056,19.352 L75.056,19.352 L74.312,19.088 C73.496,18.784 72.924,18.496 72.596,18.224 C72.268,17.952 72.104,17.552 72.104,17.024 C72.104,16.528 72.292,16.132 72.668,15.836 C73.044,15.54 73.6,15.392 74.336,15.392 C74.896,15.392 75.448,15.528 75.992,15.8 L75.992,15.8 L76.376,17.72 L77.624,17.72 L77.72,15.272 C77.208,14.952 76.684,14.708 76.148,14.54 C75.612,14.372 75.016,14.288 74.36,14.288 C73.464,14.288 72.704,14.448 72.08,14.768 C71.456,15.088 70.984,15.504 70.664,16.016 C70.344,16.528 70.184,17.08 70.184,17.672 C70.184,18.488 70.448,19.152 70.976,19.664 C71.504,20.176 72.208,20.592 73.088,20.912 L73.088,20.912 L74.192,21.32 C74.944,21.576 75.504,21.86 75.872,22.172 C76.24,22.484 76.424,22.896 76.424,23.408 C76.424,23.952 76.204,24.392 75.764,24.728 C75.324,25.064 74.648,25.232 73.736,25.232 C73,25.232 72.352,25.104 71.792,24.848 L71.792,24.848 L71.336,22.76 L70.016,22.76 L70.112,25.4 C70.704,25.704 71.28,25.932 71.84,26.084 C72.4,26.236 73.016,26.312 73.688,26.312 Z M85.136,26.312 C86.224,26.312 87.152,26.06 87.92,25.556 C88.688,25.052 89.296,24.376 89.744,23.528 L89.744,23.528 L89.168,23.072 C88.736,23.568 88.264,23.972 87.752,24.284 C87.24,24.596 86.6,24.752 85.832,24.752 C84.68,24.752 83.752,24.368 83.048,23.6 C82.344,22.832 81.976,21.712 81.944,20.24 L81.944,20.24 L89.6,20.24 C89.648,20.08 89.688,19.884 89.72,19.652 C89.752,19.42 89.768,19.168 89.768,18.896 C89.768,17.92 89.568,17.092 89.168,16.412 C88.768,15.732 88.232,15.208 87.56,14.84 C86.888,14.472 86.136,14.288 85.304,14.288 C84.312,14.288 83.396,14.544 82.556,15.056 C81.716,15.568 81.044,16.28 80.54,17.192 C80.036,18.104 79.784,19.176 79.784,20.408 C79.784,22.248 80.272,23.692 81.248,24.74 C82.224,25.788 83.52,26.312 85.136,26.312 Z M86.36,19.232 L81.992,19.232 C82.088,18.304 82.3,17.56 82.628,17 C82.956,16.44 83.348,16.032 83.804,15.776 C84.26,15.52 84.712,15.392 85.16,15.392 C85.656,15.392 86.1,15.512 86.492,15.752 C86.884,15.992 87.196,16.308 87.428,16.7 C87.66,17.092 87.776,17.52 87.776,17.984 C87.776,18.336 87.684,18.632 87.5,18.872 C87.316,19.112 86.936,19.232 86.36,19.232 L86.36,19.232 Z M97.184,26 L97.184,25.136 L95.216,24.776 C95.2,24.168 95.188,23.512 95.18,22.808 C95.172,22.104 95.168,21.488 95.168,20.96 L95.168,19.16 C95.376,18.472 95.64,17.872 95.96,17.36 C96.28,16.848 96.68,16.416 97.16,16.064 L97.16,16.064 L97.448,16.328 C97.672,16.52 97.904,16.668 98.144,16.772 C98.384,16.876 98.64,16.928 98.912,16.928 C99.856,16.928 100.328,16.344 100.328,15.176 C100.184,14.904 99.952,14.688 99.632,14.528 C99.312,14.368 98.968,14.288 98.6,14.288 C97.96,14.288 97.324,14.56 96.692,15.104 C96.06,15.648 95.544,16.4 95.144,17.36 L95.144,17.36 L94.88,14.528 L94.52,14.288 L91.16,15.752 L91.16,16.592 L93.056,16.808 C93.088,17.288 93.108,17.744 93.116,18.176 C93.124,18.608 93.128,19.152 93.128,19.808 L93.128,19.808 L93.128,20.96 C93.128,21.504 93.124,22.132 93.116,22.844 C93.108,23.556 93.096,24.216 93.08,24.824 L93.08,24.824 L91.352,25.136 L91.352,26 L97.184,26 Z M107.224727,26 L107.224727,25.136 L105.064727,24.776 C105.048727,24.136 105.036727,23.5 105.028727,22.868 C105.020727,22.236 105.016727,21.6 105.016727,20.96 L105.016727,20.96 L105.016727,15.872 L108.280727,15.872 L108.280727,14.6 L104.968727,14.6 C104.936727,13.256 105.028727,12.164 105.244727,11.324 C105.460727,10.484 105.776727,9.856 106.192727,9.44 C106.240727,9.392 106.292727,9.344 106.348727,9.296 C106.404727,9.248 106.464727,9.2 106.528727,9.152 L106.528727,9.152 L107.200727,9.68 C107.776727,10.16 108.352727,10.4 108.928727,10.4 C109.376727,10.4 109.728727,10.296 109.984727,10.088 C110.240727,9.88 110.376727,9.624 110.392727,9.32 C110.280727,8.856 110.008727,8.524 109.576727,8.324 C109.144727,8.124 108.648727,8.024 108.088727,8.024 C107.544727,8.024 106.992727,8.12 106.432727,8.312 C105.872727,8.504 105.336727,8.856 104.824727,9.368 C104.232727,9.96 103.812727,10.652 103.564727,11.444 C103.316727,12.236 103.136727,13.272 103.024727,14.552 L103.024727,14.552 L100.984727,14.816 L100.984727,15.872 L102.976727,15.872 L102.976727,20.96 C102.976727,21.6 102.972727,22.24 102.964727,22.88 C102.956727,23.52 102.944727,24.16 102.928727,24.8 L102.928727,24.8 L101.032727,25.136 L101.032727,26 L107.224727,26 Z M114.280727,26.312 C115.208727,26.312 116.092727,26.092 116.932727,25.652 C117.772727,25.212 118.460727,24.548 118.996727,23.66 C119.532727,22.772 119.800727,21.672 119.800727,20.36 C119.800727,19.032 119.532727,17.916 118.996727,17.012 C118.460727,16.108 117.772727,15.428 116.932727,14.972 C116.092727,14.516 115.208727,14.288 114.280727,14.288 C113.352727,14.288 112.468727,14.516 111.628727,14.972 C110.788727,15.428 110.104727,16.108 109.576727,17.012 C109.048727,17.916 108.784727,19.032 108.784727,20.36 C108.784727,21.672 109.048727,22.772 109.576727,23.66 C110.104727,24.548 110.788727,25.212 111.628727,25.652 C112.468727,26.092 113.352727,26.312 114.280727,26.312 Z M114.280727,25.232 C113.240727,25.232 112.444727,24.82 111.892727,23.996 C111.340727,23.172 111.064727,21.96 111.064727,20.36 C111.064727,18.744 111.340727,17.512 111.892727,16.664 C112.444727,15.816 113.240727,15.392 114.280727,15.392 C115.320727,15.392 116.120727,15.816 116.680727,16.664 C117.240727,17.512 117.520727,18.744 117.520727,20.36 C117.520727,21.96 117.240727,23.172 116.680727,23.996 C116.120727,24.82 115.320727,25.232 114.280727,25.232 Z M127.120727,26 L127.120727,25.136 L125.152727,24.776 C125.136727,24.168 125.124727,23.512 125.116727,22.808 C125.108727,22.104 125.104727,21.488 125.104727,20.96 L125.104727,20.96 L125.104727,19.16 C125.312727,18.472 125.576727,17.872 125.896727,17.36 C126.216727,16.848 126.616727,16.416 127.096727,16.064 L127.096727,16.064 L127.384727,16.328 C127.608727,16.52 127.840727,16.668 128.080727,16.772 C128.320727,16.876 128.576727,16.928 128.848727,16.928 C129.792727,16.928 130.264727,16.344 130.264727,15.176 C130.120727,14.904 129.888727,14.688 129.568727,14.528 C129.248727,14.368 128.904727,14.288 128.536727,14.288 C127.896727,14.288 127.260727,14.56 126.628727,15.104 C125.996727,15.648 125.480727,16.4 125.080727,17.36 L125.080727,17.36 L124.816727,14.528 L124.456727,14.288 L121.096727,15.752 L121.096727,16.592 L122.992727,16.808 C123.024727,17.288 123.044727,17.744 123.052727,18.176 C123.060727,18.608 123.064727,19.152 123.064727,19.808 L123.064247,21.29648 C123.062967,21.75856 123.059127,22.2744 123.052727,22.844 C123.044727,23.556 123.032727,24.216 123.016727,24.824 L123.016727,24.824 L121.288727,25.136 L121.288727,26 L127.120727,26 Z M135.424727,31.736 C136.736727,31.736 137.832727,31.536 138.712727,31.136 C139.592727,30.736 140.252727,30.216 140.692727,29.576 C141.132727,28.936 141.352727,28.272 141.352727,27.584 C141.352727,26.608 141.040727,25.848 140.416727,25.304 C139.792727,24.76 138.816727,24.488 137.488727,24.488 L137.488727,24.488 L134.344727,24.488 C133.784727,24.488 133.412727,24.392 133.228727,24.2 C133.044727,24.008 132.952727,23.752 132.952727,23.432 C132.952727,22.92 133.152727,22.408 133.552727,21.896 C134.112727,22.072 134.704727,22.16 135.328727,22.16 C136.576727,22.16 137.612727,21.82 138.436727,21.14 C139.260727,20.46 139.672727,19.488 139.672727,18.224 C139.672727,17.36 139.488727,16.632 139.120727,16.04 L139.120727,16.04 L141.472727,16.04 L141.472727,14.528 L141.112727,14.288 L138.400727,15.224 C137.632727,14.6 136.616727,14.288 135.352727,14.288 C134.104727,14.288 133.068727,14.628 132.244727,15.308 C131.420727,15.988 131.008727,16.96 131.008727,18.224 C131.008727,19.04 131.172727,19.728 131.500727,20.288 C131.828727,20.848 132.280727,21.288 132.856727,21.608 C132.264727,22.168 131.844727,22.656 131.596727,23.072 C131.348727,23.488 131.224727,23.888 131.224727,24.272 C131.224727,25.2 131.752727,25.808 132.808727,26.096 C131.928727,26.528 131.316727,26.964 130.972727,27.404 C130.628727,27.844 130.456727,28.32 130.456727,28.832 C130.456727,29.68 130.848727,30.376 131.632727,30.92 C132.416727,31.464 133.680727,31.736 135.424727,31.736 Z M135.280727,21.2 C134.544727,21.2 133.972727,20.928 133.564727,20.384 C133.156727,19.84 132.952727,19.128 132.952727,18.248 C132.952727,17.368 133.168727,16.652 133.600727,16.1 C134.032727,15.548 134.624727,15.272 135.376727,15.272 C136.128727,15.272 136.708727,15.54 137.116727,16.076 C137.524727,16.612 137.728727,17.304 137.728727,18.152 C137.728727,19.032 137.512727,19.76 137.080727,20.336 C136.648727,20.912 136.048727,21.2 135.280727,21.2 Z M135.520727,30.632 C134.576727,30.632 133.824727,30.464 133.264727,30.128 C132.704727,29.792 132.424727,29.232 132.424727,28.448 C132.424727,28.048 132.496727,27.676 132.640727,27.332 C132.784727,26.988 133.024727,26.64 133.360727,26.288 C133.520727,26.304 133.684727,26.316 133.852727,26.324 C134.020727,26.332 134.184727,26.336 134.344727,26.336 L134.344727,26.336 L137.152727,26.336 C138.016727,26.336 138.632727,26.516 139.000727,26.876 C139.368727,27.236 139.552727,27.68 139.552727,28.208 C139.552727,28.88 139.208727,29.452 138.520727,29.924 C137.832727,30.396 136.832727,30.632 135.520727,30.632 Z M147.616727,26.312 C148.704727,26.312 149.632727,26.06 150.400727,25.556 C151.168727,25.052 151.776727,24.376 152.224727,23.528 L152.224727,23.528 L151.648727,23.072 C151.216727,23.568 150.744727,23.972 150.232727,24.284 C149.720727,24.596 149.080727,24.752 148.312727,24.752 C147.160727,24.752 146.232727,24.368 145.528727,23.6 C144.824727,22.832 144.456727,21.712 144.424727,20.24 L144.424727,20.24 L152.080727,20.24 C152.128727,20.08 152.168727,19.884 152.200727,19.652 C152.232727,19.42 152.248727,19.168 152.248727,18.896 C152.248727,17.92 152.048727,17.092 151.648727,16.412 C151.248727,15.732 150.712727,15.208 150.040727,14.84 C149.368727,14.472 148.616727,14.288 147.784727,14.288 C146.792727,14.288 145.876727,14.544 145.036727,15.056 C144.196727,15.568 143.524727,16.28 143.020727,17.192 C142.516727,18.104 142.264727,19.176 142.264727,20.408 C142.264727,22.248 142.752727,23.692 143.728727,24.74 C144.704727,25.788 146.000727,26.312 147.616727,26.312 Z M148.840727,19.232 L144.472727,19.232 C144.568727,18.304 144.780727,17.56 145.108727,17 C145.436727,16.44 145.828727,16.032 146.284727,15.776 C146.740727,15.52 147.192727,15.392 147.640727,15.392 C148.136727,15.392 148.580727,15.512 148.972727,15.752 C149.364727,15.992 149.676727,16.308 149.908727,16.7 C150.140727,17.092 150.256727,17.52 150.256727,17.984 C150.256727,18.336 150.164727,18.632 149.980727,18.872 C149.796727,19.112 149.416727,19.232 148.840727,19.232 L148.840727,19.232 Z" stroke="#30393B" stroke-width="0.2" fill="#30393B"></path>
            </g>
        </g>
    </g>
</svg>