<?xml version="1.0" encoding="UTF-8" standalone="no"?>
<svg width="796px" height="180px" viewBox="0 0 796 180" version="1.1" xmlns="http://www.w3.org/2000/svg" xmlns:xlink="http://www.w3.org/1999/xlink">
    <!-- Generator: Sketch 44.1 (41455) - http://www.bohemiancoding.com/sketch -->
    <title>Group 3</title>
    <desc>Created with Sketch.</desc>
    <defs></defs>
    <g id="Brand" stroke="none" stroke-width="1" fill="none" fill-rule="evenodd">
        <g id="Group-3">
            <g id="Group-19">
                <g id="Group-18">
                    <path d="M15,15 C35,-5 145,-5 165,15 C185,35 185,145 165,165 C145,185 35,185 15,165 C-5,145 -5,35 15,15 Z" id="Rectangle-2" fill="#AE69EA"></path>
                    <g id="Group-17" transform="translate(44.000000, 30.000000)">
                        <path d="M45.9866318,119.87027 C70.915882,119.87027 91.9732636,103.723325 91.9732636,76.9399874 C91.9732636,53.2302469 60.3999383,0 45.9866318,0 C31.5733253,2.30051124e-15 0,53.2302469 0,76.9399874 C0,103.723325 21.0573816,119.87027 45.9866318,119.87027 Z" id="Oval-4" fill="#FFFFFF"></path>
                        <path d="M46.4414113,107.863728 C64.7134254,107.863728 79.0049543,93.1382193 79.0049543,76.3393229 C80.1475348,56.2184901 46.4414113,11.52 46.4414113,11.52 C46.4414113,11.52 12.7352877,56.2184901 13.8778682,76.3393229 C13.8778682,93.1382193 28.1693971,107.863728 46.4414113,107.863728 Z" id="Oval-4" fill="#AE69EA"></path>
                        <path d="M46.2126883,96.1406003 C58.2558581,96.1406003 67.6754714,86.434949 67.6754714,75.3627181 C68.4285516,62.1009833 46.2126883,32.64 46.2126883,32.64 C46.2126883,32.64 23.9968251,62.1009833 24.7499052,75.3627181 C24.7499052,86.434949 34.1695186,96.1406003 46.2126883,96.1406003 Z" id="Oval-4" fill="#FFFFFF"></path>
                    </g>
                </g>
            </g>
            <path d="M266.968441,94.0564124 L266.968441,123.678695 C266.968441,126.479347 269.122789,128.741412 272.031158,128.741412 C275.047245,128.741412 277.201593,126.479347 277.201593,123.678695 L277.201593,94.0564124 L300.468549,61.3103259 C301.976592,59.0482607 301.545723,55.9244564 299.17594,54.3086956 C297.021593,52.8006521 294.005506,53.3392391 292.389745,55.6013043 L272.031158,84.0386951 L251.888006,55.6013043 C250.272245,53.3392391 247.256159,52.8006521 245.101811,54.3086956 C242.732028,55.9244564 242.408876,58.9405433 243.916919,61.2026085 L266.968441,94.0564124 Z M352.496045,128.202825 C355.081262,128.202825 357.23561,126.156194 357.23561,123.46326 C357.23561,120.878042 355.081262,118.831412 352.496045,118.831412 L326.428437,118.831412 L326.428437,58.5096738 C326.428437,55.7090217 324.274089,53.4469565 321.365719,53.4469565 C318.565067,53.4469565 316.410719,55.7090217 316.410719,58.5096738 L316.410719,123.03239 C316.410719,125.833042 318.780502,128.202825 321.473437,128.202825 L352.496045,128.202825 Z M428.75995,128.202825 L402.584624,128.202825 C400.322559,128.202825 398.383646,126.263912 398.383646,123.894129 L398.383646,58.294239 C398.383646,55.9244564 400.322559,53.9855434 402.584624,53.9855434 L426.390167,53.9855434 C438.777667,53.9855434 446.533319,61.4180433 446.533319,73.1592388 C446.533319,79.4068474 444.163537,85.9776081 437.161906,88.6705429 C445.456145,90.3940211 450.518863,99.3345645 450.518863,106.767064 C450.518863,118.292825 442.440058,128.202825 428.75995,128.202825 Z M408.509081,84.7927169 L426.390167,84.7927169 C432.960928,84.7927169 436.300167,79.5145648 436.300167,73.4823909 C436.300167,67.0193476 431.991472,63.2492389 425.312993,63.2492389 L408.509081,63.2492389 L408.509081,84.7927169 Z M428.005928,93.6255428 L408.509081,93.6255428 L408.509081,118.831412 L428.32908,118.831412 C435.653863,118.831412 440.177993,112.906956 440.177993,106.659347 C440.177993,100.734891 435.546145,93.6255428 428.005928,93.6255428 Z M500.930597,123.786412 C500.930597,126.479347 503.084945,128.741412 505.885597,128.741412 C508.578532,128.741412 510.73288,126.479347 510.73288,123.786412 L510.73288,82.3152169 C510.73288,79.6222822 508.578532,77.360217 505.885597,77.360217 C503.084945,77.360217 500.930597,79.6222822 500.930597,82.3152169 L500.930597,105.043586 C500.930597,115.707608 493.82125,119.693151 486.711902,119.693151 C479.817989,119.693151 475.617011,114.738151 475.617011,106.336195 L475.617011,82.3152169 C475.617011,79.6222822 473.462663,77.360217 470.769728,77.360217 C467.969076,77.360217 465.814728,79.6222822 465.814728,82.3152169 L465.814728,106.982499 C465.814728,121.093477 472.708641,129.279999 485.203859,129.279999 C490.697445,129.279999 497.914511,126.694781 500.930597,120.662608 L500.930597,123.786412 Z M526.998202,59.4791303 C526.998202,55.816739 530.122007,53.1238043 533.784398,53.1238043 C537.554507,53.1238043 540.570593,55.816739 540.570593,59.4791303 C540.570593,63.1415215 537.554507,65.8344563 533.784398,65.8344563 C530.122007,65.8344563 526.998202,63.1415215 526.998202,59.4791303 Z M538.739398,123.786412 C538.739398,126.479347 536.58505,128.741412 533.784398,128.741412 C531.091463,128.741412 528.937115,126.479347 528.937115,123.786412 L528.937115,82.3152169 C528.937115,79.6222822 531.091463,77.360217 533.784398,77.360217 C536.58505,77.360217 538.739398,79.6222822 538.739398,82.3152169 L538.739398,123.786412 Z M566.853633,54.9549999 C566.853633,52.2620652 564.699285,50 561.898633,50 C559.205698,50 557.051351,52.2620652 557.051351,54.9549999 L557.051351,123.786412 C557.051351,126.479347 559.205698,128.741412 561.898633,128.741412 C564.699285,128.741412 566.853633,126.479347 566.853633,123.786412 L566.853633,54.9549999 Z M625.344172,85.4390212 L625.344172,54.9549999 C625.344172,52.2620652 627.49852,50 630.299172,50 C632.992107,50 635.146455,52.2620652 635.146455,54.9549999 L635.146455,123.786412 C635.146455,126.479347 632.992107,128.741412 630.299172,128.741412 C627.49852,128.741412 625.344172,126.479347 625.344172,123.786412 L625.344172,120.447173 C622.004933,126.156194 614.787868,129.279999 607.786238,129.279999 C593.998412,129.279999 582.257216,118.939129 582.257216,102.996956 C582.257216,86.9470646 593.782977,76.82163 607.67852,76.82163 C615.003303,76.82163 622.004933,79.7299995 625.344172,85.4390212 Z M625.236455,102.889238 C625.236455,92.1174994 616.619064,86.4084777 608.540259,86.4084777 C599.491999,86.4084777 592.274934,92.8715211 592.274934,102.889238 C592.274934,112.799238 599.491999,119.693151 608.540259,119.693151 C617.480803,119.693151 625.236455,113.55326 625.236455,102.889238 Z M660.460038,99.1191297 L691.698081,99.1191297 C690.51319,90.7171733 684.481016,85.654456 676.402211,85.654456 C668.107972,85.654456 661.644929,90.7171733 660.460038,99.1191297 Z M701.392646,102.889238 C701.392646,105.151303 699.56145,106.767064 697.51482,106.767064 L660.460038,106.767064 C661.644929,115.169021 668.21569,120.447173 676.725364,120.447173 C682.757537,120.447173 686.096777,118.939129 689.543733,115.169021 C691.374929,113.12239 694.175581,112.476086 696.114494,113.876412 C698.053407,115.384456 698.484276,118.292825 696.976233,120.016303 C692.12895,126.263912 684.588733,129.279999 676.402211,129.279999 C662.075799,129.279999 650.657755,118.831412 650.657755,102.889238 C650.657755,86.9470646 662.075799,76.82163 676.402211,76.82163 C690.728624,76.82163 701.392646,86.9470646 701.392646,102.889238 Z M741.463511,86.3007603 C744.910468,86.6239125 747.71112,85.9776081 748.249707,82.8538038 C749.111446,77.5756517 743.079272,76.82163 739.416881,76.82163 C732.84612,76.82163 727.998838,80.3763039 725.41362,89.2091298 L725.41362,82.3152169 C725.41362,79.6222822 723.259273,77.360217 720.45862,77.360217 C717.765686,77.360217 715.611338,79.6222822 715.611338,82.3152169 L715.611338,123.786412 C715.611338,126.479347 717.765686,128.741412 720.45862,128.741412 C723.259273,128.741412 725.41362,126.479347 725.41362,123.786412 L725.41362,109.890869 C725.41362,96.5339123 729.506881,86.1930429 739.201446,86.1930429 C739.847751,86.1930429 740.70949,86.1930429 741.463511,86.3007603 Z M765.592203,114.630434 C764.838182,112.691521 763.114703,111.829782 761.391225,111.829782 C759.12916,111.829782 756.65166,113.12239 756.65166,115.707608 C756.65166,116.138477 756.759377,116.677064 756.867095,117.215651 C759.236877,124.971303 767.207964,129.279999 774.963616,129.279999 C785.412203,129.279999 794.460464,123.570977 794.460464,114.199564 C794.460464,108.490543 791.875246,102.135217 781.42666,99.5499992 L773.99416,97.7188036 C770.762638,96.9647819 767.638834,95.1335863 767.638834,91.9020646 C767.638834,88.1319559 770.762638,85.3313038 775.502203,85.3313038 C778.626007,85.3313038 781.211225,86.5161951 783.47329,89.532282 C784.550464,90.9326081 785.627638,91.6866298 787.027964,91.6866298 C788.536007,91.6866298 791.659812,90.5017385 791.659812,87.2702168 C791.659812,86.6239125 791.552094,85.7621734 791.121225,85.0081516 C788.212855,79.1914126 781.857529,76.82163 775.286768,76.82163 C765.161334,76.82163 757.728834,83.2846734 757.728834,91.5789124 C757.728834,99.5499992 762.791551,103.750977 771.301225,106.013043 L778.195138,107.628803 C781.965247,108.490543 784.873616,110.321738 784.873616,113.984129 C784.873616,117.969673 781.103507,120.662608 776.04079,120.662608 C770.978073,120.662608 766.992529,118.292825 765.592203,114.630434 Z" id="YL-Builders" stroke="#414A4F" stroke-width="2" fill="#414A4F"></path>
        </g>
    </g>
</svg>